<?xml version='1.0' encoding='UTF-8' standalone='no'?>
<!-- Generator: Adobe Illustrator 16.2.0, SVG Export Plug-In . SVG Version: 6.00 Build 0)  -->
<svg xmlns="http://www.w3.org/2000/svg" x="0px" xmlns:xml="http://www.w3.org/XML/1998/namespace" y="0px" height="96.560883" width="114.60302" version="1.1"  id="_x30_" gorn="0" xml:space="preserve" viewBox="0 0 114.60302 96.560885">
    <g  transform="translate(0.023,0)">
        <g >
            <g >
                <metadata  id="metadata42">
                    <rdf:RDF xmlns:rdf="http://www.w3.org/1999/02/22-rdf-syntax-ns#">
                        <cc:Work xmlns:rdf="http://www.w3.org/1999/02/22-rdf-syntax-ns#" xmlns:cc="http://creativecommons.org/ns#" rdf:about="">
                            <dc:format xmlns:dc="http://purl.org/dc/elements/1.1/">image/svg+xml</dc:format>
                            <dc:type rdf:resource="http://purl.org/dc/dcmitype/StillImage" xmlns:dc="http://purl.org/dc/elements/1.1/" xmlns:rdf="http://www.w3.org/1999/02/22-rdf-syntax-ns#"/>
                            <dc:title xmlns:dc="http://purl.org/dc/elements/1.1/"/>
                        </cc:Work>
                    </rdf:RDF>
                </metadata>
                <defs  id="defs40"/>
                <desc  id="0.0">
                    <referenceFile  id="0.0.0">ADXL327_Breadboard.svg</referenceFile>
                </desc>
                <path fill="#f9f9f9"  id="_x30_.1" gorn="0.0.0.0.3" stroke-width="1.33170438" d="M 0.64285112,0.66585219 V 43.518181 53.045897 95.895029 H 113.91417 V 0.66585219 H 0.64285112 l 0,0 z" stroke="#f9f9f9"/>
                <g  transform="matrix(0,1,-1,0,0,0)">
                    <g >
                        <g fill-opacity="1" fill="#000000" xmlns:xml="http://www.w3.org/XML/1998/namespace" style="font-style:normal;font-variant:normal;font-weight:normal;font-stretch:normal;line-height:125%;letter-spacing:0px;word-spacing:0px;font-family:OCRA;-inkscape-font-specification:OCRA" font-size="3.16164"  id="text6444-9" gorn="0.0.0.0.4.0.0" xml:space="preserve" stroke="none">
                            <text x="6.8096652" y="-85.265022"  id="tspan6446-9" gorn="0.0.0.0.4.0.0.0">1</text>
                        </g>
                    </g>
                </g>
                <g  transform="matrix(1.1710985,0,0,1.1710985,65.322414,84.21127)">
                    <g >
                        <circle cy="4.0910001" fill="#403619"  r="1.75" id="connector16pin" gorn="0.0.0.0.5.0.0" stroke-width="1.5" d="m 5.2420001,4.0910001 c 0,0.9664983 -0.7835017,1.75 -1.75,1.75 -0.9664983,0 -1.75,-0.7835017 -1.75,-1.75 0,-0.9664983 0.7835017,-1.75 1.75,-1.75 0.9664983,0 1.75,0.7835017 1.75,1.75 z" cx="3.4920001" stroke="#9a916c"/>
                    </g>
                </g>
                <g  transform="matrix(1.1710985,0,0,1.1710985,2.4256301,2.9888922)">
                    <g >
                        <circle cy="4.0910001" fill="#403619"  r="1.75" id="connector8pin" gorn="0.0.0.0.6.0.0" stroke-width="1.5" d="m 5.2420001,4.0910001 c 0,0.9664983 -0.7835017,1.75 -1.75,1.75 -0.9664983,0 -1.75,-0.7835017 -1.75,-1.75 0,-0.9664983 0.7835017,-1.75 1.75,-1.75 0.9664983,0 1.75,0.7835017 1.75,1.75 z" cx="3.4920001" stroke="#9a916c"/>
                    </g>
                </g>
                <g  transform="matrix(1.1811969,0,0,1.1811969,9.4993777,131.52725)">
                    <g >
                        <g  id="g9902" gorn="0.0.0.0.7.0.0">
                            <path style="fill:#237b3d"  id="_x30_.1-2" gorn="0.0.0.0.7.0.0.0" d="m 20.044827,-89.395066 v 16.465375 3.660885 16.464146 H 86.739159 V -89.395066 H 20.044827 l 0,0 z"/>
                            <g  transform="matrix(1.4022727,0,0,1.4573843,-16.337479,-103.34463)">
                                <g >
                                    <a  id="a13620">
                                        <g  transform="translate(-0.02300107,0)">
                                            <g >
                                                <path fill="#cccccc"  id="rect13618" gorn="0.0.0.0.7.0.0.1.0.0.0.0.0" stroke-width="1" d="m 30.151871,11.335799 20.964258,0 0,18.737412 c -2.801983,2.66493 -0.188424,0.01525 -2.813027,2.737411 l -20.627801,0 0,-18.737412 c 2.118974,-2.516187 0.145645,-0.246361 2.47657,-2.737411 z" stroke="#999999"/>
                                            </g>
                                        </g>
                                    </a>
                                </g>
                            </g>
                            <rect x="59.538132" fill="#ececec" y="-81.664757" style="stroke-miterlimit:4;stroke-dasharray:none" height="20.524864" width="25.21303"  id="rect13626" gorn="0.0.0.0.7.0.0.2" stroke-width="0.5" stroke="#cccccc"/>
                            <g fill-opacity="1" fill="#000000" xmlns:xml="http://www.w3.org/XML/1998/namespace" style="font-style:normal;font-variant:normal;font-weight:normal;font-stretch:normal;line-height:125%;letter-spacing:0px;word-spacing:0px;font-family:OCRA;-inkscape-font-specification:OCRA" font-size="4.90662"  id="text6438" gorn="0.0.0.0.7.0.0.3" xml:space="preserve" stroke="none">
                                <text x="66.028358" y="-69.209473"  id="tspan6440" gorn="0.0.0.0.7.0.0.3.0">UWB42</text>
                            </g>
                            <g  transform="matrix(0.87210022,0,0,0.87210022,7.824491,-89.616491)">
                                <g >
                                    <path fill="#000000" style="stroke-miterlimit:4;stroke-dasharray:none"  id="path6442" gorn="0.0.0.0.7.0.0.4.0.0" stroke-width="0.5" d="m 65.271715,18.912532 0,2.253293 0,2.253293 -1.951409,-1.126647 -1.951409,-1.126646 1.951409,-1.126647 z" stroke="#000000"/>
                                </g>
                            </g>
                        </g>
                    </g>
                </g>
                <g  transform="matrix(0,1,-1,0,0,0)">
                    <g >
                        <g fill-opacity="1" fill="#000000" xmlns:xml="http://www.w3.org/XML/1998/namespace" style="font-style:normal;font-variant:normal;font-weight:normal;font-stretch:normal;line-height:125%;letter-spacing:0px;word-spacing:0px;font-family:OCRA;-inkscape-font-specification:OCRA" font-size="3.82297"  id="text6444" gorn="0.0.0.0.8.0.0" xml:space="preserve" stroke="none">
                            <text x="2.6755021" y="-108.76115"  id="tspan6446" gorn="0.0.0.0.8.0.0.0">DWM1000</text>
                        </g>
                    </g>
                </g>
                <g  transform="matrix(0,1,-1,0,0,0)">
                    <g >
                        <g fill-opacity="1" fill="#000000" xmlns:xml="http://www.w3.org/XML/1998/namespace" style="font-style:normal;font-variant:normal;font-weight:normal;font-stretch:normal;line-height:125%;letter-spacing:0px;word-spacing:0px;font-family:OCRA;-inkscape-font-specification:OCRA" font-size="3.82297"  id="text6444-1" gorn="0.0.0.0.9.0.0" xml:space="preserve" stroke="none">
                            <text x="2.7408555" y="-104.57258"  id="tspan6446-6" gorn="0.0.0.0.9.0.0.0">Adapter</text>
                        </g>
                    </g>
                </g>
                <g  transform="matrix(0,1,-1,0,0,0)">
                    <g >
                        <g fill-opacity="1" fill="#000000" xmlns:xml="http://www.w3.org/XML/1998/namespace" style="font-style:normal;font-variant:normal;font-weight:normal;font-stretch:normal;line-height:125%;letter-spacing:0px;word-spacing:0px;font-family:OCRA;-inkscape-font-specification:OCRA" font-size="3.16164"  id="text6444-9-2" gorn="0.0.0.0.10.0.0" xml:space="preserve" stroke="none">
                            <text x="86.593353" y="-85.158089"  id="tspan6446-9-9" gorn="0.0.0.0.10.0.0.0">18</text>
                        </g>
                    </g>
                </g>
                <g  transform="matrix(1.1710985,0,0,1.1710985,11.393493,3.1141622)">
                    <g >
                        <circle cy="4.0910001" fill="#403619"  r="1.75" id="connector7pin" gorn="0.0.0.0.11.0.0" stroke-width="1.5" d="m 5.2420001,4.0910001 c 0,0.9664983 -0.7835017,1.75 -1.75,1.75 -0.9664983,0 -1.75,-0.7835017 -1.75,-1.75 0,-0.9664983 0.7835017,-1.75 1.75,-1.75 0.9664983,0 1.75,0.7835017 1.75,1.75 z" cx="3.4920001" stroke="#9a916c"/>
                    </g>
                </g>
                <g  transform="matrix(1.1710985,0,0,1.1710985,20.316131,3.1897722)">
                    <g >
                        <circle cy="4.0910001" fill="#403619"  r="1.75" id="connector6pin" gorn="0.0.0.0.12.0.0" stroke-width="1.5" d="m 5.2420001,4.0910001 c 0,0.9664983 -0.7835017,1.75 -1.75,1.75 -0.9664983,0 -1.75,-0.7835017 -1.75,-1.75 0,-0.9664983 0.7835017,-1.75 1.75,-1.75 0.9664983,0 1.75,0.7835017 1.75,1.75 z" cx="3.4920001" stroke="#9a916c"/>
                    </g>
                </g>
                <g  transform="matrix(1.1710985,0,0,1.1710985,29.314384,3.1897722)">
                    <g >
                        <circle cy="4.0910001" fill="#403619"  r="1.75" id="connector5pin" gorn="0.0.0.0.13.0.0" stroke-width="1.5" d="m 5.2420001,4.0910001 c 0,0.9664983 -0.7835017,1.75 -1.75,1.75 -0.9664983,0 -1.75,-0.7835017 -1.75,-1.75 0,-0.9664983 0.7835017,-1.75 1.75,-1.75 0.9664983,0 1.75,0.7835017 1.75,1.75 z" cx="3.4920001" stroke="#9a916c"/>
                    </g>
                </g>
                <g  transform="matrix(1.1710985,0,0,1.1710985,38.403448,3.1649422)">
                    <g >
                        <circle cy="4.0910001" fill="#403619"  r="1.75" id="connector4pin" gorn="0.0.0.0.14.0.0" stroke-width="1.5" d="m 5.2420001,4.0910001 c 0,0.9664983 -0.7835017,1.75 -1.75,1.75 -0.9664983,0 -1.75,-0.7835017 -1.75,-1.75 0,-0.9664983 0.7835017,-1.75 1.75,-1.75 0.9664983,0 1.75,0.7835017 1.75,1.75 z" cx="3.4920001" stroke="#9a916c"/>
                    </g>
                </g>
                <g  transform="matrix(1.1710985,0,0,1.1710985,47.371311,3.2145922)">
                    <g >
                        <circle cy="4.0910001" fill="#403619"  r="1.75" id="connector3pin" gorn="0.0.0.0.15.0.0" stroke-width="1.5" d="m 5.2420001,4.0910001 c 0,0.9664983 -0.7835017,1.75 -1.75,1.75 -0.9664983,0 -1.75,-0.7835017 -1.75,-1.75 0,-0.9664983 0.7835017,-1.75 1.75,-1.75 0.9664983,0 1.75,0.7835017 1.75,1.75 z" cx="3.4920001" stroke="#9a916c"/>
                    </g>
                </g>
                <g  transform="matrix(1.1710985,0,0,1.1710985,56.369565,3.2145822)">
                    <g >
                        <circle cy="4.0910001" fill="#403619"  r="1.75" id="connector2pin" gorn="0.0.0.0.16.0.0" stroke-width="1.5" d="m 5.2420001,4.0910001 c 0,0.9664983 -0.7835017,1.75 -1.75,1.75 -0.9664983,0 -1.75,-0.7835017 -1.75,-1.75 0,-0.9664983 0.7835017,-1.75 1.75,-1.75 0.9664983,0 1.75,0.7835017 1.75,1.75 z" cx="3.4920001" stroke="#9a916c"/>
                    </g>
                </g>
                <g  transform="matrix(1.1710985,0,0,1.1710985,65.367819,3.2145822)">
                    <g >
                        <circle cy="4.0910001" fill="#403619"  r="1.75" id="connector1pin" gorn="0.0.0.0.17.0.0" stroke-width="1.5" d="m 5.2420001,4.0910001 c 0,0.9664983 -0.7835017,1.75 -1.75,1.75 -0.9664983,0 -1.75,-0.7835017 -1.75,-1.75 0,-0.9664983 0.7835017,-1.75 1.75,-1.75 0.9664983,0 1.75,0.7835017 1.75,1.75 z" cx="3.4920001" stroke="#9a916c"/>
                    </g>
                </g>
                <g  transform="matrix(1.1710985,0,0,1.1710985,2.3046089,84.212428)">
                    <g >
                        <circle cy="4.0910001" fill="#403619"  r="1.75" id="connector9pin" gorn="0.0.0.0.18.0.0" stroke-width="1.5" d="m 5.2420001,4.0910001 c 0,0.9664983 -0.7835017,1.75 -1.75,1.75 -0.9664983,0 -1.75,-0.7835017 -1.75,-1.75 0,-0.9664983 0.7835017,-1.75 1.75,-1.75 0.9664983,0 1.75,0.7835017 1.75,1.75 z" cx="3.4920001" stroke="#9a916c"/>
                    </g>
                </g>
                <g  transform="matrix(1.1710985,0,0,1.1710985,11.348088,84.262082)">
                    <g >
                        <circle cy="4.0910001" fill="#403619"  r="1.75" id="connector10pin" gorn="0.0.0.0.19.0.0" stroke-width="1.5" d="m 5.2420001,4.0910001 c 0,0.9664983 -0.7835017,1.75 -1.75,1.75 -0.9664983,0 -1.75,-0.7835017 -1.75,-1.75 0,-0.9664983 0.7835017,-1.75 1.75,-1.75 0.9664983,0 1.75,0.7835017 1.75,1.75 z" cx="3.4920001" stroke="#9a916c"/>
                    </g>
                </g>
                <g  transform="matrix(1.1710985,0,0,1.1710985,20.346342,84.262076)">
                    <g >
                        <circle cy="4.0910001" fill="#403619"  r="1.75" id="connector11pin" gorn="0.0.0.0.20.0.0" stroke-width="1.5" d="m 5.2420001,4.0910001 c 0,0.9664983 -0.7835017,1.75 -1.75,1.75 -0.9664983,0 -1.75,-0.7835017 -1.75,-1.75 0,-0.9664983 0.7835017,-1.75 1.75,-1.75 0.9664983,0 1.75,0.7835017 1.75,1.75 z" cx="3.4920001" stroke="#9a916c"/>
                    </g>
                </g>
                <g  transform="matrix(1.1710985,0,0,1.1710985,29.344596,84.262076)">
                    <g >
                        <circle cy="4.0910001" fill="#403619"  r="1.75" id="connector12pin" gorn="0.0.0.0.21.0.0" stroke-width="1.5" d="m 5.2420001,4.0910001 c 0,0.9664983 -0.7835017,1.75 -1.75,1.75 -0.9664983,0 -1.75,-0.7835017 -1.75,-1.75 0,-0.9664983 0.7835017,-1.75 1.75,-1.75 0.9664983,0 1.75,0.7835017 1.75,1.75 z" cx="3.4920001" stroke="#9a916c"/>
                    </g>
                </g>
                <g  transform="matrix(1.1710985,0,0,1.1710985,38.358043,84.237246)">
                    <g >
                        <circle cy="4.0910001" fill="#403619"  r="1.75" id="connector13pin" gorn="0.0.0.0.22.0.0" stroke-width="1.5" d="m 5.2420001,4.0910001 c 0,0.9664983 -0.7835017,1.75 -1.75,1.75 -0.9664983,0 -1.75,-0.7835017 -1.75,-1.75 0,-0.9664983 0.7835017,-1.75 1.75,-1.75 0.9664983,0 1.75,0.7835017 1.75,1.75 z" cx="3.4920001" stroke="#9a916c"/>
                    </g>
                </g>
                <g  transform="matrix(1.1710985,0,0,1.1710985,47.325906,84.21128)">
                    <g >
                        <circle cy="4.0910001" fill="#403619"  r="1.75" id="connector14pin" gorn="0.0.0.0.23.0.0" stroke-width="1.5" d="m 5.2420001,4.0910001 c 0,0.9664983 -0.7835017,1.75 -1.75,1.75 -0.9664983,0 -1.75,-0.7835017 -1.75,-1.75 0,-0.9664983 0.7835017,-1.75 1.75,-1.75 0.9664983,0 1.75,0.7835017 1.75,1.75 z" cx="3.4920001" stroke="#9a916c"/>
                    </g>
                </g>
                <g  transform="matrix(1.1710985,0,0,1.1710985,56.399776,84.21127)">
                    <g >
                        <circle cy="4.0910001" fill="#403619"  r="1.75" id="connector15pin" gorn="0.0.0.0.24.0.0" stroke-width="1.5" d="m 5.2420001,4.0910001 c 0,0.9664983 -0.7835017,1.75 -1.75,1.75 -0.9664983,0 -1.75,-0.7835017 -1.75,-1.75 0,-0.9664983 0.7835017,-1.75 1.75,-1.75 0.9664983,0 1.75,0.7835017 1.75,1.75 z" cx="3.4920001" stroke="#9a916c"/>
                    </g>
                </g>
                <g  transform="matrix(1.1710985,0,0,1.1710985,74.197554,84.151865)">
                    <g >
                        <circle cy="4.0910001" fill="#403619"  r="1.75" id="connector17pin" gorn="0.0.0.0.25.0.0" stroke-width="1.5" d="m 5.2420001,4.0910001 c 0,0.9664983 -0.7835017,1.75 -1.75,1.75 -0.9664983,0 -1.75,-0.7835017 -1.75,-1.75 0,-0.9664983 0.7835017,-1.75 1.75,-1.75 0.9664983,0 1.75,0.7835017 1.75,1.75 z" cx="3.4920001" stroke="#9a916c"/>
                    </g>
                </g>
                <g  transform="matrix(1.1710985,0,0,1.1710985,74.242959,3.1551722)">
                    <g >
                        <circle cy="4.0910001" fill="#403619"  r="1.75" id="connector0pin" gorn="0.0.0.0.26.0.0" stroke-width="1.5" d="m 5.2420001,4.0910001 c 0,0.9664983 -0.7835017,1.75 -1.75,1.75 -0.9664983,0 -1.75,-0.7835017 -1.75,-1.75 0,-0.9664983 0.7835017,-1.75 1.75,-1.75 0.9664983,0 1.75,0.7835017 1.75,1.75 z" cx="3.4920001" stroke="#9a916c"/>
                    </g>
                </g>
            </g>
        </g>
    </g>
</svg>
